<svg xmlns="http://www.w3.org/2000/svg" fill="none" viewBox="0 0 14 14"><g stroke="currentColor" stroke-linecap="round" stroke-linejoin="round" stroke-width="1.25" clip-path="url(#a)"><path d="M11.667 5.25h-5.25c-.645 0-1.167.522-1.167 1.167v5.25c0 .644.522 1.166 1.167 1.166h5.25c.644 0 1.166-.522 1.166-1.166v-5.25c0-.645-.522-1.167-1.166-1.167Z"/><path d="M2.917 8.75h-.584a1.167 1.167 0 0 1-1.167-1.167v-5.25a1.167 1.167 0 0 1 1.167-1.166h5.25A1.167 1.167 0 0 1 8.75 2.333v.584"/></g><defs><clipPath id="a"><path fill="#fff" d="M0 0h14v14H0z"/></clipPath></defs></svg>