<svg width="80" height="32" fill="none" xmlns="http://www.w3.org/2000/svg" viewBox="0 0 960 384"><path d="M0 0h456v72a24 24 0 0 1-24 24H120a24 24 0 1 0 0 48h312a24 24 0 0 1 24 24v216H0v-96h336a24 24 0 1 0 0-48H0V0ZM960 0H504v72a24 24 0 0 0 24 24h432V0ZM960 144H528a24 24 0 0 0-24 24v216h96V264a24 24 0 0 1 24-24h336v-96ZM932.8 324l-8.3 4.8a14.4 14.4 0 1 0 0 14.4l8.3 4.8a24 24 0 1 1 0-24Z" fill="#000"/><path fill-rule="evenodd" clip-rule="evenodd" d="M960 336a48 48 0 1 1-96 0 48 48 0 0 1 96 0Zm-12 0a36 36 0 1 1-72 0 36 36 0 0 1 72 0Z" fill="#000"/></svg>
