<svg width="818" height="818" viewBox="0 0 818 818" fill="none" xmlns="http://www.w3.org/2000/svg">
<g clip-path="url(#clip0_111_206)">
<path d="M0 409C0 183.668 183.116 0 409 0V0C634.884 0 818 183.668 818 409V409C818 634.332 634.884 818 409 818V818C183.116 818 0 634.332 0 409V409Z" fill="black"/>
<path d="M400.651 175.576C400.651 174.014 400.651 163.6 409 163.6C417.349 163.6 417.349 174.014 417.349 175.576C417.349 295.342 517.68 400.669 642.92 400.669C642.988 400.669 643.072 400.668 643.171 400.666C645.332 400.641 654.4 400.534 654.4 409C654.4 417.466 645.332 417.359 643.171 417.334C643.072 417.332 642.988 417.331 642.92 417.331C517.679 417.331 417.349 518.493 417.349 642.423C417.349 644.506 416.306 654.4 409 654.4C401.694 654.4 400.651 644.506 400.651 642.423C400.651 518.493 300.32 417.331 175.08 417.331C175.012 417.331 174.928 417.332 174.829 417.334C172.666 417.359 163.6 417.466 163.6 409C163.6 400.534 172.668 400.641 174.829 400.666C174.928 400.668 175.012 400.669 175.08 400.669C300.32 400.669 400.651 295.342 400.651 175.576Z" fill="white"/>
</g>
<defs>
<clipPath id="clip0_111_206">
<rect width="818" height="818" fill="white"/>
</clipPath>
</defs>
</svg>
