<svg xmlns="http://www.w3.org/2000/svg" fill="none" viewBox="0 0 512 512"><style>@media (prefers-color-scheme:dark){.a{fill:#437efc}}</style><path fill="#2b5cf2" d="M0 256C0 115 114.6 0 256 0s256 115 256 256-114.6 256-256 256S0 397 0 256Z" class="a"/><path fill="#fff" d="M250.8 109.9c0-1 0-7.5 5.2-7.5s5.2 6.5 5.2 7.5c0 75 62.8 140.9 141.2 140.9h.2c1.3 0 7-.1 7 5.2s-5.7 5.2-7 5.2h-.2a141 141 0 0 0-141.2 140.9c0 1.3-.6 7.5-5.2 7.5-4.6 0-5.2-6.2-5.2-7.5a141 141 0 0 0-141.2-140.9h-.2c-1.3 0-7 .1-7-5.2s5.7-5.2 7-5.2h.2c78.4 0 141.2-66 141.2-140.9Z"/></svg>
