<svg width="512" height="512" fill="none" xmlns="http://www.w3.org/2000/svg"><style>@media(prefers-color-scheme:dark){.p{fill:#fff}}</style><path class="p" d="M6 156h237.5v37.5c0 6.9-5.6 12.5-12.5 12.5H68.5a12.5 12.5 0 1 0 0 25H231c6.9 0 12.5 5.6 12.5 12.5V356H6v-50h175a12.5 12.5 0 0 0 0-25H6V156ZM506 156H268.5v37.5c0 6.9 5.6 12.5 12.5 12.5h225v-50ZM506 231H281c-6.9 0-12.5 5.6-12.5 12.5V356h50v-62.5c0-6.9 5.6-12.5 12.5-12.5h175v-50ZM491.82 324.75l-4.32 2.5a7.5 7.5 0 1 0 0 7.5l4.32 2.5a12.5 12.5 0 1 1 0-12.5Z" fill="#000"/><path class="p" fill-rule="evenodd" clip-rule="evenodd" d="M506 331a25 25 0 1 1-50 0 25 25 0 0 1 50 0Zm-6.25 0a18.75 18.75 0 1 1-37.5 0 18.75 18.75 0 0 1 37.5 0Z" fill="#000"/></svg>
