<svg fill="none" xmlns="http://www.w3.org/2000/svg" viewBox="0 0 512 512"><path fill="#000" d="M0 0h512v512H0z"/><path d="M48 173h197.6v31.2c0 5.7-4.7 10.4-10.4 10.4H100a10.4 10.4 0 1 0 0 20.8h135.2c5.7 0 10.4 4.7 10.4 10.4v93.6H48v-41.6h145.6a10.4 10.4 0 1 0 0-20.8H48V173ZM464 173H266.4v31.2c0 5.7 4.7 10.4 10.4 10.4H464V173ZM464 235.4H276.8c-5.7 0-10.4 4.7-10.4 10.4v93.6H308v-52c0-5.7 4.7-10.4 10.4-10.4H464v-41.6ZM452.2 313.4l-3.6 2a6.2 6.2 0 1 0 0 6.3l3.6 2.1a10.4 10.4 0 1 1 0-10.4Z" fill="#fff"/><path fill-rule="evenodd" clip-rule="evenodd" d="M464 318.6a20.8 20.8 0 1 1-41.6 0 20.8 20.8 0 0 1 41.6 0Zm-5.2 0a15.6 15.6 0 1 1-31.2 0 15.6 15.6 0 0 1 31.2 0Z" fill="#fff"/></svg>