<svg fill="none" height="512" viewBox="0 0 512 512" width="512" xmlns="http://www.w3.org/2000/svg"><path d="m0 184.32c0-64.518 0-96.7771 12.5561-121.4197 11.0446-21.6763 28.6679-39.2996 50.3442-50.3442 24.6426-12.5561 56.9017-12.5561 121.4197-12.5561h143.36c64.518 0 96.777 0 121.42 12.5561 21.676 11.0446 39.299 28.6679 50.344 50.3442 12.556 24.6426 12.556 56.9017 12.556 121.4197v143.36c0 64.518 0 96.777-12.556 121.42-11.045 21.676-28.668 39.299-50.344 50.344-24.643 12.556-56.902 12.556-121.42 12.556h-143.36c-64.518 0-96.7771 0-121.4197-12.556-21.6763-11.045-39.2996-28.668-50.3442-50.344-12.5561-24.643-12.5561-56.902-12.5561-121.42z" fill="#000"/><g fill="#fff"><path d="m48 173h197.6v31.2c0 5.744-4.656 10.4-10.4 10.4h-135.2c-5.7438 0-10.4 4.656-10.4 10.4s4.6562 10.4 10.4 10.4h135.2c5.744 0 10.4 4.656 10.4 10.4v93.6h-197.6v-41.6h145.6c5.744 0 10.4-4.656 10.4-10.4s-4.656-10.4-10.4-10.4h-145.6z"/><path d="m464 173h-197.6v31.2c0 5.744 4.656 10.4 10.4 10.4h187.2z"/><path d="m464 235.4h-187.2c-5.744 0-10.4 4.656-10.4 10.4v93.6h41.6v-52c0-5.744 4.656-10.4 10.4-10.4h145.6z"/><path d="m452.207 313.4-3.603 2.08c-.687-1.19-1.747-2.119-3.016-2.645s-2.676-.618-4.003-.263c-1.327.356-2.499 1.139-3.336 2.229-.836 1.09-1.289 2.425-1.289 3.799 0 1.373.453 2.709 1.289 3.799.837 1.089 2.009 1.873 3.336 2.228 1.327.356 2.734.264 4.003-.262 1.268-.525 2.328-1.454 3.015-2.643l.001-.002 3.603 2.08c-.917 1.588-2.233 2.898-3.807 3.807-.391.226-.799.427-1.22.601-2.115.876-4.46 1.03-6.672.437-2.211-.592-4.165-1.898-5.559-3.714s-2.149-4.042-2.149-6.331c0-2.29.755-4.515 2.149-6.331 1.394-1.817 3.348-3.122 5.559-3.715 2.212-.592 4.557-.439 6.672.438.421.174.829.375 1.22.601 1.574.909 2.89 2.219 3.807 3.807z"/><path clip-rule="evenodd" d="m464 318.6c0 11.487-9.312 20.8-20.8 20.8s-20.8-9.313-20.8-20.8c0-11.488 9.312-20.8 20.8-20.8s20.8 9.312 20.8 20.8zm-5.2 0c0 8.615-6.984 15.6-15.6 15.6s-15.6-6.985-15.6-15.6c0-8.616 6.984-15.6 15.6-15.6s15.6 6.984 15.6 15.6z" fill-rule="evenodd"/></g></svg>