<svg xmlns="http://www.w3.org/2000/svg" viewBox="0 0 32 32"><style>.icon{fill:#1B1917}@media (prefers-color-scheme:dark){.icon{fill:#fff}}</style><path class="icon" d="M15.02 22.33a6.45 6.45 0 0 0 1.96 0l1.43 9.49a16.14 16.14 0 0 1-4.82 0l1.43-9.5Zm-4.18-2.54c.39.52.85.98 1.37 1.37l-5.7 7.73a16.1 16.1 0 0 1-3.4-3.4l7.73-5.7Zm18.05 5.69a16.1 16.1 0 0 1-3.4 3.4l-5.7-7.72c.52-.39.98-.85 1.37-1.37l7.73 5.7ZM9.67 15.02a6.45 6.45 0 0 0 0 1.96L.18 18.4a16.13 16.13 0 0 1 0-4.82l9.5 1.43Zm22.15-1.42a16.13 16.13 0 0 1 0 4.8l-9.5-1.42a6.45 6.45 0 0 0 0-1.96l9.5-1.43Zm-19.61-2.76c-.52.39-.98.85-1.37 1.37l-7.73-5.7a16.1 16.1 0 0 1 3.4-3.4l5.7 7.73Zm13.27-7.73c1.3.96 2.45 2.1 3.4 3.4l-7.72 5.7a6.44 6.44 0 0 0-1.37-1.37l5.7-7.73ZM16 0c.82 0 1.62.06 2.4.18l-1.42 9.5a6.45 6.45 0 0 0-1.96 0L13.6.17C14.38.06 15.2 0 16 0Z"/></svg>