<svg width="512" height="512" viewBox="0 0 512 512" fill="none" xmlns="http://www.w3.org/2000/svg">
<circle cx="256" cy="256" r="256" fill="black"/>
<path d="M260.053 415.787C238.009 415.787 218.098 412.018 200.32 404.48C182.684 396.8 168.107 385.92 156.587 371.84C145.209 357.618 137.813 340.764 134.4 321.28L180.907 314.24C185.6 333.013 195.413 347.662 210.347 358.187C225.28 368.569 242.702 373.76 262.613 373.76C274.987 373.76 286.364 371.84 296.747 368C307.129 364.018 315.449 358.4 321.707 351.147C328.107 343.751 331.307 334.933 331.307 324.693C331.307 319.147 330.311 314.24 328.32 309.973C326.471 305.707 323.84 302.009 320.427 298.88C317.156 295.609 313.102 292.836 308.267 290.56C303.573 288.142 298.382 286.08 292.693 284.373L213.973 261.12C206.293 258.844 198.471 255.929 190.507 252.373C182.542 248.676 175.218 243.911 168.533 238.08C161.991 232.107 156.658 224.782 152.533 216.107C148.409 207.289 146.347 196.622 146.347 184.107C146.347 165.191 151.182 149.191 160.853 136.107C170.667 122.88 183.893 112.924 200.533 106.24C217.173 99.4133 235.804 96 256.427 96C277.191 96.2844 295.751 99.9822 312.107 107.093C328.604 114.204 342.258 124.444 353.067 137.813C364.018 151.04 371.556 167.111 375.68 186.027L327.893 194.133C325.76 182.613 321.209 172.729 314.24 164.48C307.271 156.089 298.738 149.689 288.64 145.28C278.542 140.729 267.591 138.382 255.787 138.24C244.409 137.956 233.956 139.662 224.427 143.36C215.04 147.058 207.502 152.249 201.813 158.933C196.267 165.618 193.493 173.298 193.493 181.973C193.493 190.507 195.982 197.404 200.96 202.667C205.938 207.929 212.053 212.124 219.307 215.253C226.702 218.24 234.027 220.729 241.28 222.72L298.027 238.72C305.138 240.711 313.173 243.413 322.133 246.827C331.236 250.098 339.982 254.72 348.373 260.693C356.907 266.667 363.947 274.631 369.493 284.587C375.04 294.4 377.813 306.773 377.813 321.707C377.813 337.209 374.684 350.862 368.427 362.667C362.169 374.329 353.564 384.142 342.613 392.107C331.804 399.929 319.289 405.831 305.067 409.813C290.844 413.796 275.84 415.787 260.053 415.787Z" fill="white"/>
</svg>
