<svg xmlns="http://www.w3.org/2000/svg" fill="none" viewBox="0 0 32 32"><path fill="#fff" fill-rule="evenodd" d="M0 16C0 7.19 7.16 0 16 0s16 7.19 16 16a16 16 0 0 1-32 0Z" clip-rule="evenodd"/><path fill="#000" d="M15.41 19.8a3.87 3.87 0 0 0 1.18 0l.85 5.7a9.67 9.67 0 0 1-2.88 0l.85-5.7Zm-2.51-1.53c.24.32.51.6.83.83l-3.42 4.63a9.66 9.66 0 0 1-2.04-2.04l4.63-3.42Zm10.83 3.42a9.66 9.66 0 0 1-2.04 2.04l-3.42-4.63c.32-.24.6-.51.83-.83l4.63 3.42ZM12.2 15.41a3.86 3.86 0 0 0 0 1.18l-5.7.85a9.68 9.68 0 0 1 0-2.88l5.7.85Zm13.3-.85a9.67 9.67 0 0 1 0 2.88l-5.7-.86a3.86 3.86 0 0 0 0-1.17l5.7-.85ZM13.73 12.9c-.32.24-.6.51-.83.83L8.27 10.3a9.66 9.66 0 0 1 2.04-2.04l3.42 4.63Zm7.96-4.63a9.66 9.66 0 0 1 2.04 2.04l-4.63 3.42c-.24-.32-.51-.6-.83-.83l3.42-4.63ZM16 6.4c.5 0 .97.04 1.44.1l-.86 5.7a3.86 3.86 0 0 0-1.17 0l-.85-5.7c.47-.06.95-.1 1.44-.1Z"/></svg>