<svg xmlns="http://www.w3.org/2000/svg" fill="currentColor" viewBox="0 0 240 240"><path d="M112.69 167.45a48.43 48.43 0 0 0 14.62 0l10.75 71.2a120.98 120.98 0 0 1-36.12 0l10.75-71.2ZM81.3 148.4a48.28 48.28 0 0 0 10.3 10.3l-42.72 57.96a120.71 120.71 0 0 1-25.54-25.54L81.3 148.4Zm135.36 42.72a120.73 120.73 0 0 1-25.54 25.54L148.4 158.7a48.28 48.28 0 0 0 10.3-10.3l57.96 42.72ZM72.55 112.69a48.37 48.37 0 0 0 0 14.62l-71.2 10.75a120.95 120.95 0 0 1 0-36.12l71.2 10.75Zm166.1-10.75a120.98 120.98 0 0 1 0 36.12l-71.2-10.75a48.3 48.3 0 0 0 0-14.62l71.2-10.75ZM91.6 81.3a48.27 48.27 0 0 0-10.3 10.3L23.34 48.88a120.7 120.7 0 0 1 25.54-25.54L91.6 81.3Zm99.52-57.96a120.71 120.71 0 0 1 25.54 25.54L158.7 91.6a48.28 48.28 0 0 0-10.3-10.3l42.72-57.96ZM120 0c6.14 0 12.17.46 18.06 1.35l-10.75 71.2a48.37 48.37 0 0 0-14.62 0l-10.75-71.2C107.83.46 113.86 0 120 0Z"/></svg>